<svg version="1.1" xmlns="http://www.w3.org/2000/svg" xmlns:xlink="http://www.w3.org/1999/xlink" width="45.35213" height="45.38454" viewBox="0,0,45.35213,45.38454"><g transform="translate(-217.50543,-157.39542)"><g data-paper-data="{&quot;isPaintingLayer&quot;:true}" stroke-linejoin="miter" stroke-miterlimit="10" stroke-dasharray="" stroke-dashoffset="0" style="mix-blend-mode: normal"><path d="M260.02619,191.05296c-0.99237,2.39782 -2.61278,4.48377 -4.6907,6.03831c-0.36282,0.27859 -0.73859,0.5507 -1.12085,0.80985c-4.9,3.87515 -11.18425,5.55173 -17.36338,4.6324c-6.24563,-0.53775 -12.03127,-3.51803 -15.31606,-9.55634c-5.55851,-8.0319 -5.34915,-18.7207 0.51962,-26.52877c5.86878,-7.80808 16.07804,-10.98066 25.3386,-7.87411c9.26056,3.10655 15.49123,11.79406 15.46403,21.56176c-0.00538,3.81984 -0.97951,7.57592 -2.83127,10.91691z" fill="#fff021" fill-rule="evenodd" stroke="none" stroke-width="1" stroke-linecap="butt"/><path d="M237.10594,196.59405v-3.875h0.70454v3.875z" fill="none" fill-rule="nonzero" stroke="#ffffff" stroke-width="2.5" stroke-linecap="butt"/><path d="M242.42199,196.84405v-3.875h0.57245v3.875z" fill="#9e6200" fill-rule="nonzero" stroke="#ffffff" stroke-width="2.5" stroke-linecap="butt"/><path d="M233.25367,190.90655c0,0 4.80291,1.75 7.125,1.75c2.38458,0 7,-1.75 7,-1.75" fill="none" fill-rule="nonzero" stroke="#af5500" stroke-width="2.5" stroke-linecap="round"/><path d="M261.6217,170.66003c0.55902,1.11803 -0.55902,1.67705 -0.55902,1.67705l-0.85352,0.36496c-2.10674,0.34354 -3.72531,1.70066 -5.77398,2.00376c-1.14871,0.16995 -2.41432,0.09756 -3.63287,0.04702c1.2546,4.32684 -6.62806,9.26886 -9.21334,3.1701c-0.13786,-0.32521 -0.1687,-0.68144 -0.18334,-1.04008c-0.60131,0.28897 -1.22035,-0.12372 -1.22035,-0.12372l-0.14587,-0.12946c-0.32971,-0.13189 -0.65942,-0.26377 -0.98913,-0.39566c0.02373,1.08956 -0.04119,2.23633 -0.62684,3.04629c-2.01695,2.78946 -6.83332,1.55549 -8.92867,-0.55236c-0.89695,-0.9023 -1.39953,-1.96419 -1.60286,-3.20236c-0.10903,-0.66394 0.76701,-1.53122 0.28297,-1.99855c-0.57643,-0.55654 -1.60447,0.12899 -2.40295,0.06247c-1.78745,-0.14891 -3.59847,-0.24736 -5.39327,-0.24543c0,0 -1.25,0 -1.25,-1.25c0,-1.25 1.25,-1.25 1.25,-1.25c1.25234,0.00123 2.59136,-0.02094 3.91989,0.02575c0.36957,-0.40076 0.95511,-0.40075 0.95511,-0.40075l0.25062,0.0062c1.30162,-0.12861 2.56743,-0.1312 3.87438,-0.1312c0,0 0.16494,-0.00001 0.375,0.05991c0.21006,-0.05991 0.375,-0.05991 0.375,-0.05991h1.125c3.33843,0 6.66771,-0.02889 7.57857,3.42379c0.44624,-0.13517 0.88567,0.0406 0.88567,0.0406c0.41666,0.16666 0.83334,0.33334 1.25,0.5l0.39408,0.2417c0.03855,-0.77702 0.13858,-1.54677 0.29095,-2.32625c0,0 0.16527,-0.82637 0.90294,-0.98636c0.43696,-0.50687 1.17139,-0.37333 1.17139,-0.37333l1.38578,0.25201c0.94758,0.19317 1.89758,0.43673 2.77769,0.83753c0.3196,0.14554 0.65593,0.27014 0.96845,0.4315c0.31886,-0.1662 0.64448,-0.1662 0.64448,-0.1662c1.48227,0 3.09903,0.18895 4.56848,0.01325c1.91541,-0.22902 3.70299,-1.65277 5.72602,-1.99624l0.14648,-0.13504c0,0 1.11803,-0.55902 1.67705,0.55902zM243.96459,173.44832c-0.3728,2.16587 -0.35362,4.4539 2.16852,5.15245c0.58006,0.16066 2.75735,-2.69003 2.4433,-3.33649c-0.51255,-1.05509 -2.94569,-1.49974 -3.93214,-1.6924zM230.44146,172.84405c0.11308,1.01826 -0.22796,2.37324 0.18717,3.20506c0.64499,1.29241 4.65966,3.63841 5.70525,1.8587c0.45426,-0.77321 0.17024,-2.2906 0.17133,-3.1265c-0.12259,-2.55149 -3.40057,-1.93726 -5.25155,-1.93726z" fill="#000000" fill-rule="nonzero" stroke="none" stroke-width="0.5" stroke-linecap="butt"/><path d="M234.37867,177.46905c-1.25,0 -1.25,-1.25 -1.25,-1.25l0.0062,-0.50062c-0.04167,-0.41667 -0.08333,-0.83333 -0.125,-1.25c0,0 -0.12438,-1.2438 1.11942,-1.36818c1.2438,-0.12438 1.36818,1.11942 1.36818,1.11942c0.04167,0.41667 0.08333,0.83333 0.125,1.25l0.0062,0.74938c0,0 0,1.25 -1.25,1.25z" fill="#9e6200" fill-rule="nonzero" stroke="none" stroke-width="0.5" stroke-linecap="butt"/><path d="M245.62867,177.59405c-1.25,0 -1.25,-1.25 -1.25,-1.25l0.0062,-0.00062c-0.04167,-0.41667 -0.08333,-0.83333 -0.125,-1.25c0,0 -0.12438,-1.2438 1.11942,-1.36818c1.2438,-0.12438 1.36818,1.11942 1.36818,1.11942c0.04167,0.41667 0.08333,0.83333 0.125,1.25l0.0062,0.24938c0,0 0,1.25 -1.25,1.25z" fill="#9e6200" fill-rule="nonzero" stroke="none" stroke-width="0.5" stroke-linecap="butt"/></g></g></svg>